<svg width="60" height="59" viewBox="0 0 60 59" fill="none" xmlns="http://www.w3.org/2000/svg">
<path d="M32.4729 16L33.1125 18.3613L34.927 16.7197L42.8098 9.59082L39.6008 19.7236L38.8625 22.0566L41.2756 21.6572L51.7629 19.9219L43.5842 26.7109L41.7014 28.2734L43.9475 29.2422L53.7083 33.4521L43.1575 34.7422L40.7288 35.0391L42.095 37.0684L48.0286 45.8867L38.4563 41.2676L36.2532 40.2051L36.3049 42.6504L36.5295 53.2783L30.9729 44.2158L29.6946 42.1299L28.4163 44.2158L22.8586 53.2783L23.0842 42.6504L23.136 40.2051L20.9329 41.2676L11.3596 45.8867L17.2942 37.0684L18.6604 35.0391L16.2317 34.7422L5.67993 33.4521L15.4417 29.2422L17.6877 28.2734L15.8049 26.7109L7.62524 19.9219L18.1135 21.6572L20.5266 22.0566L19.7883 19.7236L16.5784 9.59082L24.4622 16.7197L26.2766 18.3613L26.9163 16L29.6946 5.73926L32.4729 16Z" stroke="#EEDB6D" stroke-width="3"/>
</svg>
